<?xml version="1.0" encoding="iso-8859-1"?>
<!-- Uploaded to: SVG Repo, www.svgrepo.com, Generator: SVG Repo Mixer Tools -->
<svg fill="#000000" height="800px" width="800px" version="1.1" id="Layer_1" xmlns="http://www.w3.org/2000/svg" xmlns:xlink="http://www.w3.org/1999/xlink" 
	 viewBox="0 0 512 512" xml:space="preserve">
<g>
	<g>
		<path d="M486.429,42.667H25.571C11.471,42.667,0,54.175,0,68.317v85.233c0,14.142,11.471,25.65,25.571,25.65h460.858
			c14.1,0,25.571-11.508,25.571-25.65V68.317C512,54.175,500.529,42.667,486.429,42.667z M494.933,153.55
			c0,4.733-3.817,8.583-8.504,8.583H25.571c-4.687,0-8.504-3.85-8.504-8.583V68.317c0-4.733,3.817-8.583,8.504-8.583h460.858
			c4.687,0,8.504,3.85,8.504,8.583V153.55z"/>
	</g>
</g>
<g>
	<g>
		<path d="M486.429,187.733H25.571c-14.1,0-25.571,11.508-25.571,25.65v85.234c0,14.142,11.471,25.65,25.571,25.65h460.858
			c14.1,0,25.571-11.508,25.571-25.65v-85.234C512,199.242,500.529,187.733,486.429,187.733z M494.933,298.617
			c0,4.733-3.817,8.583-8.504,8.583H25.571c-4.687,0-8.504-3.85-8.504-8.583v-85.234c0-4.733,3.817-8.583,8.504-8.583h460.858
			c4.687,0,8.504,3.85,8.504,8.583V298.617z"/>
	</g>
</g>
<g>
	<g>
		<path d="M68.267,85.333c-14.117,0-25.6,11.483-25.6,25.6s11.483,25.6,25.6,25.6s25.6-11.483,25.6-25.6
			S82.383,85.333,68.267,85.333z M68.267,119.467c-4.704,0-8.533-3.825-8.533-8.533c0-4.708,3.829-8.533,8.533-8.533
			s8.533,3.825,8.533,8.533C76.8,115.642,72.971,119.467,68.267,119.467z"/>
	</g>
</g>
<g>
	<g>
		<path d="M68.267,230.4c-14.117,0-25.6,11.483-25.6,25.6s11.483,25.6,25.6,25.6s25.6-11.483,25.6-25.6S82.383,230.4,68.267,230.4z
			 M68.267,264.533c-4.704,0-8.533-3.825-8.533-8.533s3.829-8.533,8.533-8.533S76.8,251.292,76.8,256S72.971,264.533,68.267,264.533
			z"/>
	</g>
</g>
<g>
	<g>
		<path d="M128,85.333c-14.117,0-25.6,11.483-25.6,25.6s11.483,25.6,25.6,25.6s25.6-11.483,25.6-25.6S142.117,85.333,128,85.333z
			 M128,119.467c-4.704,0-8.533-3.825-8.533-8.533c0-4.708,3.829-8.533,8.533-8.533s8.533,3.825,8.533,8.533
			C136.533,115.642,132.704,119.467,128,119.467z"/>
	</g>
</g>
<g>
	<g>
		<path d="M128,230.4c-14.117,0-25.6,11.483-25.6,25.6s11.483,25.6,25.6,25.6s25.6-11.483,25.6-25.6S142.117,230.4,128,230.4z
			 M128,264.533c-4.704,0-8.533-3.825-8.533-8.533s3.829-8.533,8.533-8.533s8.533,3.825,8.533,8.533S132.704,264.533,128,264.533z"
			/>
	</g>
</g>
<g>
	<g>
		<path d="M187.733,85.333c-14.117,0-25.6,11.483-25.6,25.6s11.483,25.6,25.6,25.6s25.6-11.483,25.6-25.6
			S201.85,85.333,187.733,85.333z M187.733,119.467c-4.704,0-8.533-3.825-8.533-8.533c0-4.708,3.829-8.533,8.533-8.533
			s8.533,3.825,8.533,8.533C196.267,115.642,192.438,119.467,187.733,119.467z"/>
	</g>
</g>
<g>
	<g>
		<path d="M187.733,230.4c-14.117,0-25.6,11.483-25.6,25.6s11.483,25.6,25.6,25.6s25.6-11.483,25.6-25.6S201.85,230.4,187.733,230.4
			z M187.733,264.533c-4.704,0-8.533-3.825-8.533-8.533s3.829-8.533,8.533-8.533s8.533,3.825,8.533,8.533
			S192.438,264.533,187.733,264.533z"/>
	</g>
</g>
<g>
	<g>
		<path d="M443.733,76.8c-18.821,0-34.133,15.308-34.133,34.133c0,18.825,15.312,34.133,34.133,34.133
			c18.821,0,34.133-15.308,34.133-34.133C477.867,92.108,462.554,76.8,443.733,76.8z M443.733,128
			c-9.412,0-17.067-7.658-17.067-17.067c0-9.408,7.654-17.067,17.067-17.067s17.067,7.658,17.067,17.067
			C460.8,120.342,453.146,128,443.733,128z"/>
	</g>
</g>
<g>
	<g>
		<path d="M443.733,221.867c-18.821,0-34.133,15.308-34.133,34.133s15.312,34.133,34.133,34.133
			c18.821,0,34.133-15.308,34.133-34.133S462.554,221.867,443.733,221.867z M443.733,273.067c-9.412,0-17.067-7.658-17.067-17.067
			s7.654-17.067,17.067-17.067S460.8,246.592,460.8,256S453.146,273.067,443.733,273.067z"/>
	</g>
</g>
<g>
	<g>
		<path d="M486.429,332.8H25.571C11.471,332.8,0,344.308,0,358.45v85.234c0,14.142,11.471,25.65,25.571,25.65h460.858
			c14.1,0,25.571-11.508,25.571-25.65V358.45C512,344.308,500.529,332.8,486.429,332.8z M494.933,443.683
			c0,4.733-3.817,8.583-8.504,8.583H25.571c-4.687,0-8.504-3.85-8.504-8.583V358.45c0-4.733,3.817-8.583,8.504-8.583h460.858
			c4.687,0,8.504,3.85,8.504,8.583V443.683z"/>
	</g>
</g>
<g>
	<g>
		<path d="M68.267,375.467c-14.117,0-25.6,11.483-25.6,25.6s11.483,25.6,25.6,25.6s25.6-11.483,25.6-25.6
			S82.383,375.467,68.267,375.467z M68.267,409.6c-4.704,0-8.533-3.825-8.533-8.533c0-4.708,3.829-8.533,8.533-8.533
			s8.533,3.825,8.533,8.533C76.8,405.775,72.971,409.6,68.267,409.6z"/>
	</g>
</g>
<g>
	<g>
		<path d="M128,375.467c-14.117,0-25.6,11.483-25.6,25.6s11.483,25.6,25.6,25.6s25.6-11.483,25.6-25.6S142.117,375.467,128,375.467z
			 M128,409.6c-4.704,0-8.533-3.825-8.533-8.533c0-4.708,3.829-8.533,8.533-8.533s8.533,3.825,8.533,8.533
			C136.533,405.775,132.704,409.6,128,409.6z"/>
	</g>
</g>
<g>
	<g>
		<path d="M187.733,375.467c-14.117,0-25.6,11.483-25.6,25.6s11.483,25.6,25.6,25.6s25.6-11.483,25.6-25.6
			S201.85,375.467,187.733,375.467z M187.733,409.6c-4.704,0-8.533-3.825-8.533-8.533c0-4.708,3.829-8.533,8.533-8.533
			s8.533,3.825,8.533,8.533C196.267,405.775,192.438,409.6,187.733,409.6z"/>
	</g>
</g>
<g>
	<g>
		<path d="M443.733,366.933c-18.821,0-34.133,15.308-34.133,34.133c0,18.825,15.312,34.133,34.133,34.133
			c18.821,0,34.133-15.308,34.133-34.133C477.867,382.242,462.554,366.933,443.733,366.933z M443.733,418.133
			c-9.412,0-17.067-7.658-17.067-17.067c0-9.408,7.654-17.067,17.067-17.067s17.067,7.658,17.067,17.067
			C460.8,410.475,453.146,418.133,443.733,418.133z"/>
	</g>
</g>
</svg>