<?xml version="1.0" standalone="no"?>
<!DOCTYPE svg PUBLIC "-//W3C//DTD SVG 20010904//EN"
 "http://www.w3.org/TR/2001/REC-SVG-20010904/DTD/svg10.dtd">
<svg version="1.0" xmlns="http://www.w3.org/2000/svg"
 width="800.000000pt" height="800.000000pt" viewBox="0 0 800.000000 800.000000"
 preserveAspectRatio="xMidYMid meet">

<g transform="translate(0.000000,800.000000) scale(0.100000,-0.100000)"
fill="#000000" stroke="none">
<path d="M3730 7464 c-644 -56 -1178 -238 -1698 -581 -370 -244 -760 -638
-997 -1008 -298 -466 -476 -960 -541 -1505 -25 -201 -25 -601 0 -800 81 -671
331 -1268 749 -1793 99 -124 340 -373 461 -474 531 -447 1141 -716 1836 -810
193 -26 678 -26 870 0 947 129 1756 590 2335 1332 386 494 628 1087 711 1740
25 195 25 604 1 805 -84 678 -329 1262 -756 1800 -107 135 -395 421 -536 532
-526 416 -1086 652 -1760 743 -114 16 -568 28 -675 19z m690 -99 c635 -89
1194 -328 1695 -723 145 -115 412 -380 522 -517 413 -519 653 -1083 740 -1740
21 -164 24 -626 5 -790 -82 -682 -348 -1305 -781 -1825 -84 -101 -286 -305
-396 -399 -468 -402 -1033 -668 -1650 -777 -161 -28 -373 -45 -580 -45 -567 0
-1061 119 -1559 374 -354 181 -609 370 -891 658 -531 544 -847 1199 -951 1974
-22 165 -26 627 -6 785 101 796 415 1461 952 2014 578 596 1332 952 2180 1030
109 10 609 -3 720 -19z"/>
<path d="M3886 7228 c-3 -46 -7 -177 -8 -293 l-3 -210 38 -3 37 -3 0 110 c0
82 3 111 13 111 6 -1 57 -43 111 -94 l99 -93 26 30 25 30 -99 92 -99 92 75 43
c138 79 142 58 -33 167 -84 52 -158 97 -164 100 -8 3 -14 -23 -18 -79z m176
-112 c-1 -5 -24 -19 -51 -32 l-51 -23 0 60 0 61 51 -29 c28 -16 51 -33 51 -37z"/>
<path d="M3075 7198 c19 -83 125 -558 125 -562 0 -7 63 5 72 13 4 3 -6 64 -22
134 -17 71 -30 135 -30 144 0 13 9 15 58 9 31 -4 83 -10 115 -13 l58 -6 -3 39
-3 39 -80 12 c-44 6 -101 14 -126 17 -45 7 -46 8 -56 52 -6 24 -8 46 -4 48 3
2 59 -4 123 -12 65 -8 120 -13 123 -11 2 3 6 20 7 39 l3 34 -165 22 c-210 29
-202 29 -195 2z"/>
<path d="M4855 7045 c-110 -46 -204 -86 -210 -88 -15 -6 242 -387 261 -387 20
0 74 31 74 43 0 4 -41 71 -90 148 -50 77 -88 144 -86 148 3 4 71 34 151 67 81
32 149 64 151 70 7 16 -25 84 -39 84 -6 0 -102 -39 -212 -85z"/>
<path d="M2378 6934 l-28 -15 135 -269 c74 -149 138 -270 141 -270 11 0 64 31
64 38 -1 4 -16 36 -34 72 l-34 65 60 118 c32 66 58 120 56 121 -2 1 -59 11
-128 22 l-125 19 -30 57 c-16 32 -34 58 -40 58 -5 -1 -22 -7 -37 -16z m249
-217 c-8 -12 -20 -32 -28 -44 -8 -13 -16 -23 -19 -23 -5 0 -50 84 -50 93 0 1
25 0 56 -1 54 -4 55 -4 41 -25z"/>
<path d="M5570 6791 c0 -54 -3 -118 -6 -143 l-6 -45 -134 -73 c-74 -39 -134
-78 -134 -85 0 -7 9 -23 19 -36 l19 -24 106 53 c59 28 109 52 113 52 3 0 3
-56 -1 -125 l-6 -125 45 0 45 0 0 48 c0 27 3 97 7 155 l6 107 129 65 128 66
-16 32 c-9 18 -18 33 -19 35 -2 2 -48 -20 -104 -47 -55 -28 -103 -51 -106 -51
-4 0 -3 54 1 120 l7 120 -47 0 -46 0 0 -99z"/>
<path d="M3775 6654 c-1266 -105 -2266 -1026 -2466 -2272 -30 -186 -37 -512
-15 -702 39 -337 127 -634 271 -915 415 -812 1181 -1349 2081 -1460 166 -21
472 -21 638 0 588 72 1115 321 1542 728 448 427 731 994 809 1623 18 139 20
459 5 595 -72 644 -342 1198 -801 1644 -423 411 -929 658 -1519 741 -104 14
-449 26 -545 18z m565 -99 c646 -99 1214 -418 1632 -915 171 -203 351 -513
443 -764 286 -777 187 -1642 -266 -2333 -339 -515 -861 -903 -1442 -1072 -422
-123 -884 -139 -1304 -45 -767 171 -1407 667 -1762 1363 -147 288 -236 591
-271 918 -18 164 -8 524 19 678 70 404 198 725 422 1056 340 502 858 874 1454
1044 108 31 326 72 450 84 130 14 500 5 625 -14z"/>
<path d="M3546 6214 c-24 -24 -28 -51 -24 -193 2 -109 6 -133 21 -148 15 -16
41 -18 187 -21 l170 -3 0 -30 c0 -25 -4 -29 -29 -29 -71 0 -107 -42 -83 -95 9
-19 22 -26 62 -31 46 -6 50 -9 50 -34 0 -25 -4 -28 -47 -33 -50 -5 -73 -25
-73 -62 0 -37 23 -57 73 -62 43 -5 47 -8 47 -33 0 -25 -4 -28 -47 -33 -50 -5
-73 -25 -73 -62 0 -37 23 -57 73 -62 l47 -6 0 -556 0 -556 -354 354 c-195 195
-353 358 -350 362 10 16 79 22 123 10 24 -6 57 -23 73 -36 35 -30 78 -32 101
-7 27 30 20 61 -20 98 -80 74 -216 95 -325 50 l-57 -23 -23 24 -22 24 161 162
c104 104 164 172 169 190 6 27 -12 48 -322 358 -181 181 -339 332 -351 335
-12 3 -31 3 -41 -1 -26 -8 -43 -55 -30 -81 6 -10 141 -151 302 -311 l291 -293
-135 -135 -134 -135 -23 22 -22 21 29 34 c42 48 39 96 -7 114 -27 10 -53 0
-91 -34 l-23 -21 -24 25 -25 24 21 43 c30 60 36 164 14 231 -58 175 -261 265
-426 189 -117 -54 -184 -159 -184 -288 1 -57 6 -88 24 -128 30 -66 113 -144
177 -166 67 -23 178 -21 233 4 54 25 63 25 86 0 17 -19 17 -21 -14 -55 -35
-40 -40 -74 -13 -98 27 -24 66 -21 101 9 32 27 57 26 68 -2 4 -11 -32 -54
-128 -150 l-134 -134 -300 300 c-315 315 -328 325 -369 284 -42 -41 -33 -52
317 -402 250 -249 338 -332 356 -332 17 0 69 45 192 167 166 164 169 166 189
148 25 -23 25 -31 -1 -90 -43 -97 -23 -232 47 -314 40 -46 79 -54 107 -23 22
24 21 54 -2 83 -49 63 -67 151 -40 201 10 19 40 -8 365 -333 195 -195 354
-357 354 -362 0 -4 -379 -6 -842 -5 l-843 3 -5 368 c-5 388 -5 385 -50 387
-98 5 -297 -3 -307 -12 -7 -6 -13 -25 -13 -44 0 -53 26 -64 147 -64 l103 0 0
-130 0 -130 -113 0 c-124 0 -137 -5 -137 -55 0 -55 22 -65 143 -65 l107 0 0
-130 0 -130 -109 0 c-121 0 -141 -8 -141 -59 0 -51 24 -61 143 -61 l107 0 0
-130 0 -130 -108 0 c-119 0 -142 -10 -142 -62 0 -47 26 -58 143 -58 l107 0 0
-130 0 -130 -108 0 c-120 0 -142 -10 -142 -63 0 -52 17 -57 184 -57 135 0 155
2 169 18 15 17 17 58 17 380 l0 362 847 0 848 0 -424 -424 c-234 -234 -428
-423 -432 -420 -14 9 -20 83 -9 122 6 23 22 55 37 72 69 83 -15 167 -87 88
-55 -60 -74 -114 -75 -208 0 -70 4 -93 24 -129 l23 -44 -25 -25 -26 -25 -36
31 c-40 35 -46 37 -78 21 -47 -25 -49 -61 -5 -106 l32 -33 -24 -25 -24 -26
-121 121 c-99 99 -125 120 -150 120 -25 0 -59 -29 -222 -193 -167 -166 -193
-197 -193 -223 0 -17 8 -38 18 -47 40 -36 59 -24 233 149 l167 167 90 -91 90
-90 -24 -22 -23 -23 -36 32 c-41 36 -67 39 -95 11 -29 -29 -25 -59 12 -97 l32
-33 -24 -25 -24 -25 -31 30 c-34 33 -74 39 -99 14 -25 -25 -20 -67 14 -99 l29
-28 -29 -34 c-37 -41 -40 -85 -8 -107 33 -23 53 -20 93 15 l36 32 32 -32 c39
-37 66 -39 95 -8 30 31 28 50 -9 92 l-32 36 23 25 24 24 31 -30 c77 -75 160 8
85 85 l-30 31 24 23 25 23 85 -83 c47 -46 86 -88 86 -94 0 -6 -72 -82 -160
-170 -138 -138 -160 -164 -160 -191 0 -36 26 -64 59 -64 16 0 78 54 208 183
172 169 213 217 213 248 0 7 -55 68 -122 135 -120 122 -121 124 -103 144 24
26 37 25 65 -5 41 -44 110 -25 110 30 0 14 -13 40 -30 58 l-29 34 23 23 24 22
57 -21 c65 -24 169 -27 228 -7 90 33 145 93 128 140 -18 46 -61 47 -121 4 -35
-26 -55 -33 -104 -36 -34 -1 -68 2 -76 7 -12 9 66 92 408 433 l422 423 0 -718
0 -717 -360 0 c-347 0 -361 -1 -380 -20 -18 -18 -20 -33 -20 -160 l0 -140 -44
0 c-52 0 -76 -19 -76 -60 0 -37 32 -60 82 -60 37 0 38 -1 38 -35 0 -35 0 -35
-44 -35 -52 0 -76 -19 -76 -59 0 -54 21 -61 181 -61 162 0 189 8 189 59 0 39
-28 61 -78 61 -41 0 -42 1 -42 35 0 34 1 35 38 35 50 0 82 23 82 60 0 41 -24
60 -76 60 l-44 0 0 100 0 100 65 0 65 0 0 -49 c0 -40 4 -53 22 -65 51 -36 98
-3 98 69 l0 45 190 0 190 0 0 -65 0 -65 -165 0 c-163 0 -166 0 -190 -25 -24
-23 -25 -29 -25 -163 0 -126 2 -142 21 -166 26 -34 62 -34 88 0 18 23 21 41
21 125 l0 99 125 0 125 0 0 -65 0 -65 -43 0 c-70 0 -102 -55 -57 -100 18 -18
33 -20 168 -20 166 0 182 6 182 68 0 38 -22 52 -79 52 l-41 0 0 65 0 65 130 0
130 0 0 -109 c0 -102 2 -111 22 -125 30 -21 54 -20 78 4 18 18 20 33 20 167 0
82 -4 153 -8 159 -18 28 -56 34 -211 34 l-161 0 0 65 0 65 190 0 190 0 0 -40
c0 -44 34 -90 65 -90 32 0 65 46 65 90 l0 41 63 -3 62 -3 0 -95 0 -95 -47 -3
c-110 -7 -102 -122 8 -122 45 0 45 0 42 -32 -3 -32 -5 -33 -50 -36 -71 -5
-102 -58 -58 -102 18 -18 33 -20 170 -20 137 0 152 2 170 20 24 24 25 48 4 78
-12 18 -25 22 -65 22 l-49 0 0 35 c0 34 1 35 43 35 47 1 71 14 81 48 13 40
-16 70 -71 74 l-48 3 -3 140 c-2 112 -6 143 -19 157 -15 17 -43 18 -380 18
l-363 0 0 722 0 723 450 -450 c248 -247 450 -453 450 -458 0 -4 -13 -21 -30
-39 -34 -35 -37 -54 -14 -86 23 -33 73 -30 109 8 l29 30 23 -21 22 -22 -29
-34 c-34 -39 -39 -82 -12 -106 28 -25 57 -21 97 15 l36 31 21 -21 21 -21 -31
-36 c-36 -40 -41 -74 -14 -98 28 -25 67 -21 105 13 l34 29 21 -22 22 -21 -120
-122 c-99 -100 -120 -126 -120 -150 0 -25 19 -49 109 -137 114 -113 135 -123
171 -87 34 34 25 58 -57 142 l-77 79 92 92 92 92 78 -78 c83 -82 107 -92 142
-57 34 34 25 58 -57 142 l-77 79 92 92 92 92 78 -78 c46 -45 86 -77 98 -77 29
0 52 20 60 53 6 25 -4 38 -102 137 -89 91 -113 110 -138 110 -24 0 -50 -21
-150 -120 l-122 -120 -21 22 -22 21 29 34 c37 41 40 85 8 107 -32 23 -49 20
-92 -15 l-38 -32 -20 21 -21 21 31 36 c36 40 39 60 16 93 -22 32 -66 29 -107
-8 l-34 -29 -22 22 -21 23 30 29 c41 39 39 93 -2 113 -30 14 -53 7 -89 -29
-10 -10 -22 -19 -27 -19 -4 0 -210 203 -457 450 l-450 450 428 0 c316 0 427
-3 427 -12 0 -41 -101 -117 -157 -118 -64 0 -99 -49 -69 -95 14 -21 24 -25 64
-25 76 0 140 28 203 91 40 38 62 71 75 107 18 50 20 52 56 52 l38 0 0 -109 c0
-122 8 -141 60 -141 48 0 60 29 60 148 l0 103 36 -3 c34 -3 38 -7 56 -57 38
-102 142 -180 253 -189 70 -5 95 10 95 58 0 34 -31 60 -72 60 -58 0 -123 43
-154 103 l-15 27 156 0 155 0 0 -170 c0 -223 -12 -210 190 -210 137 0 152 2
170 20 24 24 25 49 6 76 -12 16 -30 20 -128 24 l-113 5 0 125 0 125 113 5 c98
4 116 8 128 24 19 26 18 49 -3 75 -16 18 -30 21 -128 23 l-110 3 0 125 0 125
113 5 c98 4 116 8 128 24 18 26 18 46 -2 74 -15 21 -21 22 -174 22 -203 0
-190 15 -190 -212 l0 -168 -149 0 c-83 0 -152 4 -155 8 -8 14 34 70 68 92 19
11 57 25 86 30 69 13 82 25 78 69 -4 50 -39 67 -110 51 -128 -27 -213 -106
-252 -232 -4 -13 -16 -18 -40 -18 l-35 0 -3 111 c-3 108 -4 113 -29 132 -24
17 -30 18 -55 5 -29 -13 -29 -13 -34 -128 l-5 -115 -32 -3 c-31 -3 -34 0 -61
60 -49 106 -142 177 -252 193 -38 5 -50 3 -73 -15 -16 -12 -27 -31 -27 -45 0
-30 44 -65 82 -65 42 0 93 -26 128 -66 58 -67 76 -64 -397 -64 l-428 0 425
425 c234 234 429 424 435 422 5 -2 18 -26 28 -53 39 -103 8 -248 -73 -341 -49
-56 -33 -116 30 -116 42 0 85 47 135 148 70 140 63 321 -16 436 -18 26 -18 26
10 53 l28 26 49 -22 c70 -32 190 -32 257 1 100 49 138 118 85 155 -31 22 -36
21 -96 -18 -64 -41 -108 -51 -163 -36 l-42 12 111 111 112 112 123 -123 c88
-88 129 -122 146 -122 17 0 54 30 127 103 112 111 129 142 95 176 -38 38 -66
28 -150 -54 l-77 -74 -89 89 -89 89 77 80 c82 83 91 107 57 141 -36 36 -63 26
-145 -56 l-77 -77 -91 91 -91 91 77 79 c82 84 91 108 57 142 -38 38 -60 26
-173 -86 -82 -81 -107 -113 -107 -133 0 -20 28 -54 121 -147 l121 -121 -106
-107 c-59 -58 -110 -106 -115 -106 -11 0 -21 36 -21 80 0 40 29 108 53 129 27
22 22 77 -8 97 -20 13 -30 14 -53 5 -31 -13 -84 -88 -102 -144 -18 -56 -9
-173 16 -224 l21 -42 -24 -25 c-13 -14 -25 -26 -27 -26 -2 0 -23 11 -47 24
-95 54 -216 69 -324 41 -117 -31 -245 -120 -245 -171 0 -29 32 -64 59 -64 10
0 41 18 67 40 99 82 245 108 347 62 26 -11 47 -23 47 -25 0 -3 -768 -771 -846
-846 -2 -2 -4 246 -4 552 l0 557 39 0 c49 0 84 27 84 64 0 39 -23 57 -77 63
-43 5 -46 8 -46 34 0 27 3 29 39 29 49 0 84 27 84 65 0 38 -35 65 -84 65 -36
0 -39 2 -39 29 0 26 3 29 46 34 54 6 77 24 77 63 0 37 -35 64 -84 64 -36 0
-39 2 -39 29 l0 30 169 3 c223 4 211 -7 211 187 0 164 -8 191 -59 191 -51 0
-61 -24 -61 -143 l0 -107 -130 0 -130 0 0 105 c0 92 -3 108 -20 125 -20 20
-55 26 -77 12 -22 -14 -33 -63 -33 -153 l0 -89 -124 0 -124 0 -4 111 c-3 96
-6 113 -22 125 -26 18 -61 18 -80 -2z m-963 -568 c41 -17 91 -74 107 -121 13
-38 8 -111 -7 -126 -5 -5 -64 46 -133 116 -100 101 -122 127 -110 135 22 14
106 12 143 -4z m-105 -230 c105 -105 112 -115 94 -125 -12 -6 -42 -11 -69 -11
-61 0 -118 32 -157 87 -24 35 -29 52 -29 101 0 69 7 86 31 73 9 -6 68 -61 130
-125z"/>
<path d="M1840 6441 c-91 -26 -171 -49 -178 -52 -11 -4 356 -441 376 -446 4
-1 20 8 36 22 l29 23 -59 70 c-32 38 -101 117 -152 175 -59 68 -88 108 -81
113 7 4 50 17 98 29 65 18 89 20 97 12 7 -7 63 -70 124 -142 62 -71 116 -131
119 -133 4 -1 19 10 34 26 l27 28 -138 160 c-76 87 -144 160 -152 161 -8 1
-89 -20 -180 -46z"/>
<path d="M6108 6229 c-100 -94 -199 -187 -218 -205 l-34 -33 24 -26 c13 -14
30 -24 37 -23 6 2 43 32 80 68 38 36 81 76 95 89 l27 24 131 -48 c72 -26 133
-45 136 -42 5 5 -83 357 -91 365 -2 2 -86 -74 -187 -169z m157 -25 c3 -20 4
-38 1 -41 -6 -7 -76 19 -76 28 0 9 49 49 60 49 4 0 11 -16 15 -36z"/>
<path d="M1286 5978 c-3 -13 -8 -62 -11 -110 -4 -49 -9 -88 -11 -88 -3 0 -22
11 -42 25 -20 14 -39 25 -42 25 -3 0 -14 -14 -24 -32 -19 -30 -19 -31 0 -45
84 -63 464 -323 472 -323 11 0 42 44 42 59 0 5 -36 33 -81 63 l-80 53 6 65 c3
36 8 97 11 136 l7 71 -38 7 c-20 4 -39 6 -41 3 -2 -2 -9 -50 -15 -108 -6 -57
-13 -106 -15 -108 -5 -6 -84 48 -84 57 0 4 7 63 15 131 8 68 12 128 9 132 -3
5 -21 9 -39 9 -28 0 -36 -4 -39 -22z"/>
<path d="M6573 5592 c-169 -92 -252 -142 -253 -153 0 -9 8 -27 18 -39 l18 -23
130 71 c95 53 130 68 132 57 3 -13 -21 -150 -34 -195 -2 -9 -36 -33 -75 -54
-38 -21 -69 -41 -67 -44 2 -4 10 -19 17 -34 8 -16 17 -28 21 -28 7 0 499 267
509 276 3 3 -3 20 -12 40 l-17 36 -78 -42 c-42 -24 -105 -58 -139 -77 -74 -41
-73 -44 -43 92 22 99 30 110 119 158 54 29 55 33 19 79 -12 15 -36 4 -265
-120z"/>
<path d="M918 5114 c-71 -35 -128 -66 -128 -69 0 -12 131 -265 136 -265 4 0
49 20 101 44 84 41 94 43 103 28 6 -9 30 -59 55 -109 47 -99 55 -104 105 -78
35 18 37 28 11 63 -23 33 -91 166 -91 179 0 5 50 33 110 63 61 30 110 58 110
63 0 11 -29 67 -35 67 -2 0 -52 -22 -111 -50 -59 -27 -111 -50 -115 -50 -5 0
-29 41 -54 90 -25 50 -51 90 -58 89 -6 0 -69 -29 -139 -65z m127 -101 c11 -26
21 -51 23 -55 3 -7 -98 -63 -102 -56 -11 15 -56 98 -56 102 0 7 91 55 105 55
6 1 19 -20 30 -46z"/>
<path d="M7001 4917 c-11 -18 -33 -62 -49 -97 l-29 -65 -142 -35 -142 -34 7
-41 c3 -22 8 -42 10 -44 2 -2 45 6 96 18 51 12 99 21 106 21 8 0 1 -22 -19
-62 l-31 -62 22 -18 c40 -33 53 -24 100 73 25 51 54 97 65 104 11 7 52 20 90
29 158 38 148 33 140 74 -4 20 -9 40 -11 43 -2 4 -40 -2 -84 -13 -44 -12 -83
-18 -86 -16 -3 3 8 31 23 63 l28 57 -24 19 c-33 27 -46 24 -70 -14z"/>
<path d="M660 4345 c0 -4 45 -56 100 -116 l100 -107 -117 -111 c-65 -61 -115
-111 -113 -112 26 -4 576 -26 579 -23 3 2 -24 35 -60 72 -35 37 -84 88 -107
113 l-43 46 113 103 c62 56 114 106 116 110 1 4 -86 10 -195 14 -109 3 -237 9
-285 13 -49 3 -88 2 -88 -2z m319 -74 l64 -6 -55 -47 c-31 -27 -58 -48 -61
-48 -2 0 -26 25 -52 55 l-47 55 44 -1 c24 -1 72 -4 107 -8z m-4 -266 l47 -55
-95 0 c-51 0 -97 3 -101 7 -6 7 82 103 95 103 4 0 28 -25 54 -55z"/>
<path d="M6898 4073 l-168 -3 0 -39 0 -39 283 5 c155 2 288 6 295 8 6 3 12 20
12 40 l0 35 -127 -2 c-71 -1 -203 -4 -295 -5z"/>
<path d="M6872 3503 c-126 -80 -182 -121 -188 -137 -3 -8 2 -26 11 -40 20 -30
16 -31 142 51 46 29 89 56 97 59 9 3 26 -15 50 -53 19 -32 40 -64 44 -71 14
-21 76 13 69 38 -6 23 -120 209 -128 210 -3 0 -47 -26 -97 -57z"/>
<path d="M901 3278 c-75 -129 -81 -143 -66 -154 10 -7 73 -45 142 -85 100 -57
127 -69 134 -58 44 68 161 270 158 273 -10 8 -277 166 -281 166 -2 0 -41 -64
-87 -142z m185 -14 c35 -20 64 -38 64 -41 0 -14 -75 -133 -83 -133 -15 0 -127
62 -127 70 0 9 73 140 78 140 2 0 33 -16 68 -36z"/>
<path d="M6888 3354 c-16 -8 -28 -20 -28 -27 0 -9 113 -189 136 -216 2 -2 271
176 294 196 6 6 -23 56 -35 60 -6 2 -56 -25 -110 -60 -55 -35 -105 -66 -111
-70 -7 -4 -30 22 -58 63 -25 39 -49 70 -54 70 -4 -1 -19 -8 -34 -16z"/>
<path d="M6503 2697 c-79 -39 -143 -74 -143 -77 0 -3 86 -52 192 -110 105 -58
198 -110 206 -116 11 -8 0 -18 -57 -48 -40 -21 -71 -44 -71 -52 0 -13 15 -50
25 -62 5 -6 315 141 315 149 0 4 -89 56 -197 115 -109 59 -204 111 -210 116
-9 7 8 21 61 47 l74 36 -15 38 c-8 20 -20 37 -27 36 -6 0 -75 -32 -153 -72z"/>
<path d="M1451 2410 c-101 -60 -188 -110 -192 -110 -5 0 -9 37 -11 83 l-3 82
-37 3 -38 3 0 -160 c0 -89 3 -161 6 -161 3 0 120 68 259 152 l254 152 -19 31
c-10 16 -23 31 -27 32 -4 2 -91 -46 -192 -107z"/>
<path d="M1680 1981 c-111 -115 -202 -213 -202 -217 1 -5 53 -19 117 -30 64
-12 120 -25 124 -30 5 -5 18 -63 30 -128 11 -65 23 -121 26 -125 3 -3 103 93
223 212 l217 217 -31 31 -31 31 -95 -96 -94 -96 -79 15 c-43 9 -82 21 -87 27
-4 7 -12 43 -19 81 l-11 69 48 51 c27 28 68 70 92 95 23 24 42 47 42 51 0 10
-48 51 -59 51 -4 0 -99 -94 -211 -209z m24 -155 c6 -26 5 -28 -16 -22 -13 3
-34 6 -47 6 -25 0 -24 0 9 35 36 37 41 35 54 -19z m173 -144 c9 -6 4 -17 -21
-41 l-34 -33 -4 41 c-3 38 -2 41 22 41 14 0 31 -4 37 -8z"/>
<path d="M6025 2080 l-49 -99 -55 -3 c-54 -3 -56 -4 -59 -33 -4 -49 5 -54 94
-48 l80 6 31 68 c17 38 35 69 40 69 4 0 64 -54 133 -119 l124 -118 -74 -39
-75 -39 -3 -60 c-5 -89 2 -105 43 -105 l34 0 7 58 6 57 94 50 c52 28 94 53 94
56 0 6 -406 399 -412 399 -2 0 -26 -45 -53 -100z"/>
<path d="M2325 1458 c-71 -123 -138 -238 -149 -257 l-20 -34 60 6 c32 4 82 10
110 13 l52 7 21 -59 c57 -156 53 -149 66 -130 43 58 286 497 280 505 -3 6 -19
18 -34 25 l-28 15 -104 -181 -104 -181 -21 50 -22 50 -51 -5 c-29 -2 -51 0
-51 5 0 5 43 84 95 174 52 90 95 169 95 175 0 6 -12 17 -27 25 -16 7 -31 15
-34 16 -3 2 -64 -97 -134 -219z"/>
<path d="M5368 1604 c-16 -8 -28 -17 -28 -21 0 -3 34 -64 76 -135 l75 -128
-32 -131 c-17 -71 -30 -132 -28 -133 2 -2 18 -7 35 -10 l32 -7 27 80 c15 45
30 81 33 81 4 0 25 -32 46 -70 22 -39 42 -70 46 -70 4 0 40 22 59 36 2 2 -15
35 -38 74 -36 64 -48 90 -38 90 2 0 40 -11 84 -24 l82 -23 11 30 c5 17 7 34 3
38 -5 3 -65 25 -134 48 l-126 42 -74 124 c-40 69 -76 125 -79 125 -3 -1 -17
-8 -32 -16z"/>
<path d="M4603 1158 c-34 -106 -61 -194 -59 -195 1 -1 60 13 131 32 71 19 131
33 133 31 2 -2 -13 -55 -32 -117 -20 -62 -36 -118 -36 -124 0 -14 72 -38 81
-27 9 11 113 382 108 387 -2 2 -62 -11 -132 -30 -70 -18 -127 -31 -127 -27 0
4 16 56 35 116 19 60 35 111 35 113 0 4 -65 33 -72 33 -2 0 -31 -87 -65 -192z"/>
<path d="M3202 1230 c-101 -27 -187 -51 -190 -55 -3 -3 22 -34 56 -68 34 -34
62 -68 62 -74 0 -13 -35 -25 -122 -44 -32 -7 -58 -13 -58 -15 0 -6 281 -279
290 -282 6 -2 10 -1 10 3 0 3 36 134 80 291 44 156 80 286 80 289 0 9 -22 4
-208 -45z m72 -97 c-4 -16 -11 -39 -16 -52 l-9 -24 -34 33 c-19 19 -35 37 -35
42 0 8 53 26 83 27 14 1 16 -4 11 -26z m-57 -197 c-3 -8 -9 -31 -13 -50 -3
-20 -10 -36 -14 -36 -11 0 -71 72 -65 78 5 5 63 19 84 21 7 1 11 -5 8 -13z"/>
<path d="M3900 1133 c0 -49 -3 -146 -7 -216 l-6 -128 -36 33 c-78 73 -78 73
-106 54 -14 -9 -25 -22 -25 -29 0 -15 201 -217 215 -217 6 1 57 45 114 99
l105 98 -17 27 c-10 14 -23 26 -29 26 -6 0 -36 -21 -67 -46 l-56 -46 -3 216
-2 216 -40 0 -40 0 0 -87z"/>
</g>
</svg>
