<?xml version="1.0" standalone="no"?>
<!DOCTYPE svg PUBLIC "-//W3C//DTD SVG 20010904//EN"
 "http://www.w3.org/TR/2001/REC-SVG-20010904/DTD/svg10.dtd">
<svg version="1.0" xmlns="http://www.w3.org/2000/svg"
 width="256.000000pt" height="256.000000pt" viewBox="0 0 256.000000 256.000000"
 preserveAspectRatio="xMidYMid meet">

<g transform="translate(0.000000,256.000000) scale(0.100000,-0.100000)"
fill="#000000" stroke="none">
<path d="M336 2058 c-9 -12 -16 -29 -16 -37 0 -9 163 -179 362 -378 l363 -363
-363 -363 c-242 -242 -362 -369 -362 -383 0 -25 30 -54 55 -54 12 0 170 151
407 387 304 304 388 393 388 413 0 19 -84 109 -388 412 -273 273 -394 388
-409 388 -12 0 -29 -10 -37 -22z"/>
<path d="M1030 570 c-24 -24 -25 -38 -4 -68 l15 -22 583 0 c552 0 584 1 599
18 23 26 21 58 -5 76 -20 14 -93 16 -595 16 -560 0 -573 0 -593 -20z"/>
</g>
</svg>
